<svg width="133" height="32" viewBox="0 0 133 32" fill="none" xmlns="http://www.w3.org/2000/svg">
<rect x="8.5" y="2.5" width="52" height="27" rx="13.5" fill="#242EDB"/>
<path d="M34.5 9V23" stroke="white" stroke-width="2" stroke-linecap="round" stroke-linejoin="round"/>
<path d="M27.5 16H41.5" stroke="white" stroke-width="2" stroke-linecap="round" stroke-linejoin="round"/>
<path d="M108.5 3C105.929 3 103.415 3.76244 101.278 5.1909C99.1398 6.61935 97.4735 8.64968 96.4896 11.0251C95.5056 13.4006 95.2482 16.0144 95.7498 18.5362C96.2514 21.0579 97.4895 23.3743 99.3076 25.1924C101.126 27.0105 103.442 28.2486 105.964 28.7502C108.486 29.2518 111.099 28.9944 113.475 28.0104C115.85 27.0265 117.881 25.3603 119.309 23.2224C120.738 21.0846 121.5 18.5712 121.5 16C121.496 12.5533 120.126 9.24882 117.688 6.81163C115.251 4.37445 111.947 3.00364 108.5 3ZM108.5 27C106.324 27 104.198 26.3549 102.389 25.1462C100.58 23.9375 99.1699 22.2195 98.3373 20.2095C97.5048 18.1995 97.2869 15.9878 97.7114 13.854C98.1358 11.7202 99.1835 9.7602 100.722 8.22183C102.26 6.68345 104.22 5.6358 106.354 5.21136C108.488 4.78692 110.7 5.00476 112.71 5.83733C114.72 6.66989 116.437 8.07979 117.646 9.88873C118.855 11.6977 119.5 13.8244 119.5 16C119.497 18.9164 118.337 21.7123 116.275 23.7745C114.212 25.8367 111.416 26.9967 108.5 27ZM110 16C110 16.2967 109.912 16.5867 109.747 16.8334C109.582 17.08 109.348 17.2723 109.074 17.3858C108.8 17.4993 108.498 17.5291 108.207 17.4712C107.916 17.4133 107.649 17.2704 107.439 17.0607C107.23 16.8509 107.087 16.5836 107.029 16.2926C106.971 16.0017 107.001 15.7001 107.114 15.426C107.228 15.1519 107.42 14.9176 107.667 14.7528C107.913 14.588 108.203 14.5 108.5 14.5C108.898 14.5 109.279 14.658 109.561 14.9393C109.842 15.2206 110 15.6022 110 16ZM115.5 16C115.5 16.2967 115.412 16.5867 115.247 16.8334C115.082 17.08 114.848 17.2723 114.574 17.3858C114.3 17.4993 113.998 17.5291 113.707 17.4712C113.416 17.4133 113.149 17.2704 112.939 17.0607C112.73 16.8509 112.587 16.5836 112.529 16.2926C112.471 16.0017 112.501 15.7001 112.614 15.426C112.728 15.1519 112.92 14.9176 113.167 14.7528C113.413 14.588 113.703 14.5 114 14.5C114.398 14.5 114.779 14.658 115.061 14.9393C115.342 15.2206 115.5 15.6022 115.5 16ZM104.5 16C104.5 16.2967 104.412 16.5867 104.247 16.8334C104.082 17.08 103.848 17.2723 103.574 17.3858C103.3 17.4993 102.998 17.5291 102.707 17.4712C102.416 17.4133 102.149 17.2704 101.939 17.0607C101.73 16.8509 101.587 16.5836 101.529 16.2926C101.471 16.0017 101.501 15.7001 101.614 15.426C101.728 15.1519 101.92 14.9176 102.167 14.7528C102.413 14.588 102.703 14.5 103 14.5C103.398 14.5 103.779 14.658 104.061 14.9393C104.342 15.2206 104.5 15.6022 104.5 16Z" fill="#B2B3B9"/>
</svg>
